<svg width="480" height="400" viewBox="0 0 480 400" fill="none" xmlns="http://www.w3.org/2000/svg">
<rect width="480" height="400" fill="white"/>
<path d="M314.176 352.637C308.722 351.677 287.06 344.611 270.776 338.543C268.241 337.583 264.707 336.278 262.902 335.625C261.097 334.972 259.023 334.166 258.293 333.858C257.563 333.551 253.147 331.861 248.499 330.057C236.516 325.487 229.372 322.607 222.958 319.803L217.389 317.345L161.237 317.23L105.047 317.153V306.017V294.88H156.667H208.325L210.937 293.536C212.358 292.807 213.779 292.192 214.086 292.192C214.432 292.192 214.508 291.962 214.316 291.347C213.049 287.545 215.93 285.433 222.19 285.51C225.762 285.549 228.527 286.24 232.138 287.968C233.443 288.621 234.557 289.12 234.596 289.12C234.672 289.12 234.749 288.582 234.749 287.891C234.749 286.317 236.67 284.512 238.321 284.512C240.126 284.512 241.739 285.357 247.654 289.274C250.65 291.27 253.953 293.344 254.99 293.882L256.872 294.88H271.966H287.099V300.026V305.134L289.903 305.94C291.4 306.401 295.856 307.707 299.773 308.859C303.691 310.011 307.186 311.009 307.57 311.048C308.146 311.163 309.183 308.974 313.792 297.76C316.865 290.387 319.361 284.089 319.361 283.859C319.361 283.475 315.175 283.36 299.735 283.36H280.147L280.378 281.555C281.03 277.1 283.412 272.031 286.446 268.767C287.406 267.692 287.79 267 287.483 266.924C286.254 266.501 285.486 265.234 285.716 264.005C285.985 262.776 286.407 262.046 290.248 256.363C293.667 251.294 296.47 249.335 300.926 248.913C304.305 248.606 309.759 250.257 313.216 252.638C313.754 252.984 316.173 253.867 318.593 254.558C321.013 255.249 324.585 256.363 326.543 257.054L330.077 258.321L331.383 254.981C333.726 249.067 341.868 229.52 344.134 224.412C347.629 216.463 352.046 208.476 354.888 204.827C355.58 203.983 356.232 203.099 356.348 202.869C356.501 202.639 355.733 200.027 354.658 197.109C353.045 192.654 349.588 183.015 347.13 175.988L346.554 174.375L342.406 174.605C329.846 175.181 324.7 169.152 324.085 153.1C323.893 148.607 323.74 147.032 323.356 147.032C322.703 147.032 319.784 143.653 319.131 142.078C318.363 140.235 318.478 137.201 319.4 134.36C319.822 133.054 321.512 128.983 323.125 125.374L326.083 118.807L326.313 109.782C326.505 101.948 326.62 100.489 327.35 98.569C330.077 91.0806 335.377 87.01 344.518 85.4355C348.781 84.6674 350.817 84.6674 355.464 85.3971C374.284 88.2388 386.19 99.4522 389.878 117.77C390.838 122.762 390.492 133.937 389.148 139.352C387.381 146.533 384.27 152.562 380.084 156.978L378.202 158.937L379.507 163.852C380.237 166.541 382.004 172.954 383.463 178.138L386.075 187.508L388.725 188.161C400.593 191.118 410.272 201.563 418.568 220.419C422.255 228.79 425.443 239.236 429.591 256.478C430.666 261.01 431.972 266.54 432.51 268.728C434.93 278.713 441.459 312.238 442.65 320.725C443.034 323.375 443.034 324.219 442.65 324.642C441.382 326.178 440.537 324.757 439.807 319.765C439.423 317.384 438.924 314.235 438.617 312.737C438.31 311.278 437.733 308.052 437.272 305.633C435.659 296.762 433.701 286.854 432.433 281.056C425.059 247.531 421.295 233.591 416.532 222.492C407.545 201.486 395.024 189.467 383.233 190.58C378.509 191.003 370.328 194.305 365.95 197.608C357.807 203.675 352.123 212.316 344.71 229.789C342.252 235.626 340.14 240.657 330.423 264.274C328.848 268.152 327.888 271.033 328.003 271.455C328.848 274.143 337.72 279.289 346.054 281.977C353.659 284.435 362.8 286.125 365.066 285.549C365.911 285.318 366.449 284.204 369.56 276.37C371.519 271.455 374.207 264.581 375.513 261.086C377.741 255.288 378.048 254.75 378.931 254.635C381.044 254.404 381.044 254.366 373.401 273.951C368.216 287.2 357.961 311.201 354.427 318.382C353.774 319.726 353.774 320.187 354.235 325.871C354.504 329.212 354.735 333.321 354.811 335.01C354.888 337.852 354.85 338.083 354.082 338.198C353.659 338.275 353.121 338.083 352.891 337.814C352.661 337.545 352.277 334.818 352.008 331.746C351.47 324.834 351.393 324.603 350.395 326.562C348.858 329.596 344.518 337.353 343.174 339.427C338.949 345.993 336.76 348.182 332.189 350.41C326.582 353.136 320.974 353.827 314.176 352.637ZM327.043 349.565C330.461 348.566 334.993 346.032 336.491 344.265C341.061 339.004 347.053 328.098 354.965 310.817C357.116 306.17 364.682 288.736 364.682 288.467C364.682 288.429 364.106 288.352 363.376 288.352C360.918 288.352 352.584 286.739 348.167 285.395C339.717 282.86 332.573 279.404 328.31 275.794C327.196 274.834 326.275 274.143 326.275 274.22C326.275 274.374 323.164 282.054 316.865 297.376C315.29 301.178 312.832 307.207 311.372 310.817C309.875 314.388 308.415 317.499 308.069 317.729C307.647 317.998 307.301 317.921 306.802 317.461C306.264 316.885 306.226 316.577 306.61 315.349C306.84 314.58 306.994 313.889 306.917 313.812C306.879 313.774 303.806 312.814 300.119 311.739C288.059 308.206 275.615 304.442 267.895 301.985C257.563 298.644 254.683 297.261 245.196 290.848C240.741 287.853 239.013 287.008 238.129 287.353C236.977 287.776 237.63 288.736 240.933 291.501C242.776 292.999 244.39 294.496 244.582 294.727C244.735 294.995 245.465 295.571 246.195 296.032C247.117 296.608 247.539 297.146 247.539 297.76C247.539 299.527 246.387 299.22 240.818 295.879C230.64 289.773 225.263 287.661 220.999 288.121C218.503 288.352 216.813 289.005 216.813 289.734C216.813 290.349 219.156 291.04 221.268 291.04C223.419 291.04 226.684 292.077 228.527 293.344C230.985 295.034 233.712 298.029 233.712 298.989C233.712 300.602 232.637 300.449 228.758 298.413C222.382 295.034 217.159 293.805 214.24 294.919C213.203 295.303 213.279 295.379 216.314 296.416C218.08 296.992 220.999 298.221 222.843 299.181C225.685 300.641 226.223 301.063 226.338 301.908C226.415 302.561 226.261 303.021 225.877 303.175C225.57 303.29 223.342 302.445 220.923 301.255C214.547 298.144 210.745 297.338 207.134 298.375C205.521 298.797 205.175 299.488 206.558 299.488C207.672 299.488 212.012 300.986 215.008 302.369C216.813 303.213 217.197 303.559 217.197 304.327C217.197 304.865 216.928 305.364 216.621 305.479C216.314 305.594 214.547 305.057 212.703 304.25C210.821 303.444 208.363 302.599 207.211 302.33C205.367 301.869 204.983 301.908 203.562 302.522C199.875 304.212 195.958 310.779 198.185 311.624C198.838 311.892 201.68 310.318 203.447 308.667C206.289 306.055 208.171 306.67 215.507 312.66C216.736 313.697 218.81 315.041 220.078 315.694C223.726 317.576 246.387 326.562 262.518 332.553C267.05 334.242 272.581 336.354 274.808 337.199C280.301 339.35 306.495 348.029 310.489 349.027C312.256 349.45 314.675 349.987 315.866 350.179C318.785 350.64 324.469 350.333 327.043 349.565ZM171.108 310.087C171.108 310.011 171.223 309.665 171.338 309.358C171.761 308.206 170.417 307.553 167.498 307.553C164.425 307.553 163.542 308.052 164.003 309.473C164.233 310.164 164.54 310.241 167.69 310.241C169.572 310.241 171.108 310.164 171.108 310.087ZM195.074 304.289C195.189 303.982 195.189 303.444 195.074 303.137C194.882 302.676 193.807 302.561 188.583 302.561C183.36 302.561 182.285 302.676 182.092 303.137C181.977 303.444 181.977 303.982 182.092 304.289C182.285 304.75 183.36 304.865 188.583 304.865C193.807 304.865 194.882 304.75 195.074 304.289ZM139.806 301.601V300.449H131.394C123.982 300.449 122.945 300.525 122.599 301.101C122.292 301.562 122.33 301.908 122.676 302.33C123.137 302.868 124.289 302.945 131.51 302.868L139.806 302.753V301.601ZM296.816 275.794C296.97 273.106 297.085 269.65 297.085 268.114C297.085 265.695 297.008 265.349 296.317 265.119C294.704 264.619 294.511 265.311 294.243 273.068C293.974 279.788 294.012 280.479 294.627 280.94C295.049 281.248 295.51 281.286 295.933 281.056C296.47 280.787 296.624 279.865 296.816 275.794ZM306.764 279.097C309.26 278.559 316.365 275.833 319.745 274.143C321.128 273.452 322.818 272.684 323.509 272.453C324.585 272.069 324.969 271.57 326.121 268.959C328.31 264.005 329.462 261.048 329.27 260.894C329.194 260.818 326.275 259.781 322.818 258.629C314.445 255.864 309.145 254.789 303.998 254.75C298.506 254.75 295.779 255.595 292.975 258.168C290.863 260.088 288.635 262.968 288.635 263.775C288.635 264.504 290.325 263.928 293.551 262.046C295.203 261.125 297.277 260.165 298.237 259.973C302.577 258.974 309.529 259.973 313.139 262.085C315.636 263.544 316.404 265.964 314.983 268.076C314.714 268.421 312.525 270.265 310.105 272.146C305.573 275.679 303.614 277.638 303.614 278.559C303.614 278.982 303.806 279.135 304.651 279.481C304.69 279.519 305.65 279.327 306.764 279.097ZM364.413 195.304C368.177 192.5 377.011 188.699 381.505 187.931C382.388 187.777 383.118 187.47 383.118 187.239C383.118 186.855 381.505 180.941 378.893 171.802C378.317 169.69 377.28 165.965 376.589 163.545L375.398 159.129L373.055 157.286C369.522 154.521 367.755 151.986 366.411 147.839L365.719 145.765L362.915 145.996C360.688 146.149 359.958 146.072 359.497 145.65C358.076 144.229 359.075 143.691 363.914 143.231C369.445 142.693 372.287 141.963 375.321 140.274C381.466 136.856 383.579 130.596 380.66 124.606C379.546 122.378 376.819 120.113 374.284 119.383C370.52 118.308 365.758 119.421 361.11 122.493C358.499 124.183 357.884 124.452 356.732 124.26C355.964 124.106 355.042 123.722 354.658 123.377C353.736 122.532 352.545 119.344 352.2 116.695C351.931 114.659 348.705 97.9929 348.321 96.6105C347.898 95.1512 339.372 91.3494 336.568 91.3494C335.377 91.3494 332.305 94.2679 331.191 96.4569C329.309 100.182 329.232 100.604 328.963 112.855C328.771 119.344 328.272 128.945 327.772 134.36C326.697 146.687 326.582 157.171 327.542 161.049C328.925 166.579 330.691 169.114 334.302 170.803C336.261 171.725 336.837 171.802 340.869 171.725C343.289 171.686 345.978 171.61 346.784 171.533L348.282 171.418L352.814 184.09C355.349 191.08 357.654 197.493 357.999 198.414L358.614 200.027L360.534 198.414C361.571 197.493 363.338 196.11 364.413 195.304ZM324.892 136.856C325.238 132.824 325.506 128.945 325.468 128.215C325.43 126.91 325.43 126.91 324.316 129.175C322.779 132.401 321.282 137.201 321.282 138.891C321.282 139.659 321.55 140.85 321.896 141.464C322.472 142.578 324.009 144.421 324.201 144.229C324.239 144.191 324.546 140.85 324.892 136.856Z" fill="#201000"/>
<path d="M333.992 154.943C333.301 154.098 333.915 153.215 335.49 152.793C337.103 152.37 338.447 151.18 339.408 149.413C340.137 148.031 340.406 147.954 341.405 148.684C342.019 149.144 342.058 149.375 341.674 150.565C340.598 153.868 335.49 156.748 333.992 154.943Z" fill="#201000"/>
<path d="M362.915 134.168C362.146 131.134 368.561 126.449 373.093 126.756C374.629 126.871 374.859 126.986 374.975 127.793C375.167 128.907 374.514 129.367 372.709 129.367C369.866 129.367 366.026 131.94 365.258 134.321C364.873 135.512 363.222 135.397 362.915 134.168Z" fill="#201000"/>
<path d="M330.116 122.263C329.847 121.956 329.732 121.303 329.885 120.727C330.077 119.959 330.385 119.767 331.268 119.767C332.651 119.767 333.419 120.919 332.804 122.071C332.305 122.993 330.807 123.069 330.116 122.263Z" fill="#201000"/>
<path d="M331.573 112.816C330.613 112.317 330.113 111.779 330.113 111.28C330.113 110.243 331.073 109.974 332.84 110.55C334.607 111.165 335.414 112.24 334.684 113.085C334.108 113.815 333.301 113.738 331.573 112.816Z" fill="#201000"/>
<path d="M135.043 291.078C133.699 290.234 135.004 285.702 137.194 283.513C139.268 281.44 140.151 281.247 150.751 281.055L160.545 280.863L160.661 273.49L160.737 266.079L124.558 266.002L88.3392 265.887L85.7659 264.658C81.6178 262.699 79.1213 259.666 77.9307 255.134C77.5082 253.56 77.393 241.463 77.393 189.774C77.393 132.132 77.3546 126.295 76.7785 126.295C76.4328 126.295 76.2408 126.065 76.3176 125.834C76.5864 125.066 81.2338 124.951 81.2338 125.642C81.2338 125.95 80.9649 126.295 80.6577 126.449C80.1199 126.641 80.0815 133.784 80.1584 190.695L80.2736 254.75L81.1185 256.555C82.3092 259.166 84.9209 261.586 87.5326 262.584L89.7218 263.391L174.487 263.314L259.253 263.199L261.289 262.085C263.939 260.587 265.705 258.629 266.704 255.941L267.511 253.752V186.01V118.269L266.704 116.08C265.705 113.431 263.593 111.05 261.096 109.782L259.253 108.822L197.225 108.707C140.535 108.63 135.158 108.669 134.736 109.245C134.006 110.282 133.468 109.475 133.468 107.286C133.468 105.097 133.967 104.291 134.736 105.328C135.158 105.865 140.958 105.942 197.455 106.019L259.675 106.134L262.249 107.44C265.321 108.976 267.587 111.318 268.97 114.314L270.007 116.503L270.122 184.858C270.237 261.893 270.468 256.017 267.318 260.28C265.705 262.43 264.323 263.544 261.173 265.119C259.675 265.887 258.754 265.887 223.457 266.002L187.239 266.079V273.567V281.055H196.764C206.289 281.055 206.289 281.055 208.324 282.054C209.515 282.668 210.783 283.705 211.435 284.588C212.818 286.47 213.586 289.504 212.972 290.618L212.549 291.424H174.065C151.404 291.424 135.35 291.27 135.043 291.078ZM210.283 288.198C210.283 287.238 208.555 285.088 207.211 284.435C205.982 283.782 203.562 283.744 173.873 283.744C142.417 283.744 141.879 283.744 140.343 284.512C138.884 285.28 137.309 287.2 137.309 288.275C137.309 288.621 144.875 288.736 173.796 288.736C204.215 288.736 210.283 288.659 210.283 288.198ZM184.473 273.452L184.55 266.079L173.911 266.155L163.234 266.271L163.119 273.183C163.08 276.946 163.119 280.287 163.234 280.556C163.349 280.979 165.577 281.055 173.873 280.979L184.358 280.863L184.473 273.452Z" fill="#201000"/>
<path d="M89.7601 240.273C89.4145 239.927 89.2993 226.678 89.2993 183.053C89.2993 131.518 89.2608 126.295 88.6847 126.295C88.3391 126.295 88.147 126.065 88.2238 125.834C88.4927 125.066 93.14 124.951 93.14 125.642C93.14 125.95 92.8712 126.295 92.5639 126.449C92.0646 126.641 91.9878 130.174 92.0646 156.134C92.1798 183.553 92.2654 185.862 92.2654 185.862V188.676C92.2654 188.676 91.9878 189.659 91.9878 213.43V238.045H173.796H255.604V179.098V120.151H203.37C157.204 120.151 151.249 120.151 151.249 120.151H148.561C148.561 120.151 147.448 120.151 141.726 120.151C135.926 120.151 135.004 120.228 134.697 120.765C134.083 121.879 133.468 120.919 133.468 118.807C133.468 116.695 134.083 115.735 134.697 116.848C135.004 117.424 139.92 117.463 196.188 117.463C243.275 117.463 257.486 117.578 257.832 117.924C258.177 118.269 258.293 132.363 258.293 178.944C258.293 212.277 258.177 239.773 258.062 240.119C257.832 240.695 250.073 240.733 174.026 240.733C109.348 240.733 90.1058 240.618 89.7601 240.273Z" fill="#201000"/>
<path d="M235.302 151.667C234.995 150.822 235.418 150.016 236.339 149.708C236.8 149.593 238.951 148.787 241.14 147.904C244.712 146.521 245.173 146.406 245.711 146.944C246.863 148.134 246.018 148.902 241.601 150.63C237.146 152.358 235.686 152.589 235.302 151.667Z" fill="#201000"/>
<path d="M231.076 142.412C230.269 141.606 230.269 141.567 231.844 139.57C232.612 138.61 234.686 135.884 236.491 133.503C240.14 128.703 240.831 128.127 241.753 129.048C242.098 129.355 242.367 129.778 242.367 129.97C242.367 130.316 234.763 140.3 233.226 141.99C232.074 143.18 231.882 143.257 231.076 142.412Z" fill="#201000"/>
<path d="M240.587 255.825C238.283 253.867 237.668 250.679 239.205 248.414C241.624 244.766 246.541 244.766 248.96 248.414C250.573 250.756 249.959 253.79 247.539 255.864C246.541 256.709 245.926 256.862 244.082 256.862C242.2 256.862 241.624 256.709 240.587 255.825Z" fill="#FFCF74"/>
<path d="M278.917 110.666L270.198 101.91L233.02 101.718L195.88 101.526L195.764 74.1452L195.688 46.803H241.777H287.866V83.0929C287.866 103.062 287.827 119.383 287.75 119.383C287.712 119.383 283.756 115.466 278.917 110.666ZM264.36 78.9839C264.475 78.139 264.283 77.9086 263.592 77.7166C263.093 77.6014 252.454 77.563 239.895 77.6014C219.385 77.7166 217.042 77.7934 216.696 78.3311C216.466 78.6767 216.428 79.2527 216.543 79.5983C216.773 80.1744 218.809 80.2128 240.509 80.136L264.245 80.0207L264.36 78.9839ZM264.36 65.5432C264.475 64.6983 264.283 64.4679 263.592 64.2759C263.093 64.1607 252.454 64.1223 239.895 64.1607C219.385 64.2759 217.042 64.3527 216.696 64.8903C216.466 65.236 216.428 65.812 216.543 66.1576C216.773 66.7336 218.809 66.772 240.509 66.6952L264.245 66.58L264.36 65.5432Z" fill="#2D6CE2"/>
<path d="M57.1497 126.372L37.0625 126.295V110.358V94.4215H85.9554H134.81L134.733 110.205C134.695 118.884 134.618 126.065 134.541 126.142C134.31 126.334 81.2696 126.526 57.1497 126.372ZM119.946 108.861C120.292 107.056 120.714 107.094 85.9938 107.094C67.9806 107.094 53.0016 107.209 52.656 107.325C52.0415 107.555 51.811 109.053 52.3103 109.514C52.4255 109.667 67.6733 109.744 86.1858 109.706C119.101 109.59 119.831 109.59 119.946 108.861Z" fill="#F76567"/>
<path d="M66.4062 276.37C64.4474 274.22 60.9523 269.036 61.1443 268.536C61.3748 267.96 62.6038 267.461 63.1031 267.768C63.2951 267.884 64.793 269.727 66.4446 271.877C68.749 274.95 69.3251 275.948 69.0563 276.409C68.4418 277.369 67.2511 277.331 66.4062 276.37Z" fill="#F76567"/>
<path d="M61.8746 256.209C59.2244 252.6 58.9172 251.755 60.0694 251.102C61.068 250.603 61.8362 251.294 64.5247 255.057C66.7523 258.245 67.0212 258.936 66.0226 259.32C64.7551 259.819 64.2942 259.474 61.8746 256.209Z" fill="#F76567"/>
<path d="M120.216 89.8133C116.568 87.8164 115.031 85.3586 115.031 81.5952C115.031 78.5999 115.339 77.6782 117.028 75.7965C118.642 73.9532 121.599 72.5323 123.865 72.5323C127.091 72.5323 131.239 75.2973 132.353 78.1774C132.737 79.2527 132.814 82.6321 132.468 84.3986C132.161 85.8579 129.665 88.7764 127.975 89.6597C127.283 90.0053 125.632 90.3509 124.249 90.4661C122.175 90.6197 121.484 90.5045 120.216 89.8133Z" fill="#FFCF74"/>
<path d="M301.383 90.1205C300.461 89.1988 300.845 88.5076 304.455 84.2834C305.3 83.2849 305.608 83.1697 306.184 83.5153C307.144 84.0914 307.221 85.2434 306.414 86.1651C306.03 86.5875 305.07 87.778 304.263 88.7764C302.727 90.6581 302.189 90.9269 301.383 90.1205Z" fill="#2D6CE2"/>
<rect x="125.883" y="150.254" width="2.47815" height="55.8973" fill="#2D6CE2"/>
<rect x="165.512" y="150.254" width="2.47815" height="55.8973" fill="#2D6CE2"/>
<rect x="167.992" y="204.914" width="2.4758" height="42.1085" transform="rotate(90 167.992 204.914)" fill="#2D6CE2"/>
<rect x="157.035" y="160.359" width="2.4758" height="21.5045" transform="rotate(90 157.035 160.359)" fill="#2D6CE2"/>
<rect x="157.035" y="186.245" width="2.4758" height="21.5045" transform="rotate(90 157.035 186.245)" fill="#2D6CE2"/>
<rect x="157.035" y="169.399" width="2.4758" height="21.5045" transform="rotate(90 157.035 169.399)" fill="#2D6CE2"/>
<rect x="157.035" y="177.945" width="2.4758" height="21.5045" transform="rotate(90 157.035 177.945)" fill="#2D6CE2"/>
<rect x="167.992" y="149.989" width="2.4758" height="42.1085" transform="rotate(90 167.992 149.989)" fill="#2D6CE2"/>
<rect x="178.508" y="149.989" width="2.47815" height="55.8973" fill="#D9D9D9"/>
<rect x="218.137" y="149.989" width="2.47815" height="55.8973" fill="#D9D9D9"/>
<rect x="220.617" y="204.649" width="2.4758" height="42.1085" transform="rotate(90 220.617 204.649)" fill="#D9D9D9"/>
<rect x="209.66" y="160.094" width="2.4758" height="21.5045" transform="rotate(90 209.66 160.094)" fill="#D9D9D9"/>
<rect x="209.66" y="185.979" width="2.4758" height="21.5045" transform="rotate(90 209.66 185.979)" fill="#D9D9D9"/>
<rect x="209.66" y="169.134" width="2.4758" height="21.5045" transform="rotate(90 209.66 169.134)" fill="#D9D9D9"/>
<rect x="209.66" y="177.68" width="2.4758" height="21.5045" transform="rotate(90 209.66 177.68)" fill="#D9D9D9"/>
<rect x="220.617" y="149.724" width="2.4758" height="42.1085" transform="rotate(90 220.617 149.724)" fill="#D9D9D9"/>
</svg>
